<?xml version="1.0" encoding="UTF-8"?>
<svg xmlns="http://www.w3.org/2000/svg" xmlns:xlink="http://www.w3.org/1999/xlink" width="30px" height="30px" viewBox="0 0 30 30" version="1.1">
<g id="surface1">
<path style=" stroke:none;fill-rule:nonzero;fill:rgb(0%,0%,0%);fill-opacity:1;" d="M 9 24 C 7.351562 24 6 25.351562 6 27 C 6 28.648438 7.351562 30 9 30 C 10.648438 30 12 28.648438 12 27 C 12 25.351562 10.648438 24 9 24 Z M 0 0 L 0 3 L 3 3 L 8.398438 14.398438 L 6.300781 18 C 6.148438 18.449219 6 19.050781 6 19.5 C 6 21.148438 7.351562 22.5 9 22.5 L 27 22.5 L 27 19.5 L 9.601562 19.5 C 9.449219 19.5 9.300781 19.351562 9.300781 19.199219 L 9.300781 19.050781 L 10.648438 16.5 L 21.75 16.5 C 22.949219 16.5 23.851562 15.898438 24.300781 15 L 29.699219 5.25 C 30 4.949219 30 4.800781 30 4.5 C 30 3.601562 29.398438 3 28.5 3 L 6.300781 3 L 4.949219 0 Z M 24 24 C 22.351562 24 21 25.351562 21 27 C 21 28.648438 22.351562 30 24 30 C 25.648438 30 27 28.648438 27 27 C 27 25.351562 25.648438 24 24 24 Z M 24 24 "/>
</g>
</svg>
